# xmcd
#
# Track frame offsets: 
#        150
#        16909
#        33918
#        53465
#        75475
#        90372
#        105649
#        122314
#        138818
#        154249
#        171559
#        188065
#        205751
#        221549
#        239492
#        262732
#
# Disc length: 3806 seconds
#
# Revision: 0
# Processed by: cddbd v1.5.2PL0 Copyright (c) Steve Scherf et al.
# Submitted via: ExactAudioCopyFreeDBPlugin 1.0
#
DISCID=bf0edc10
DTITLE=Liberty X - X
DYEAR=2005
DGENRE=Pop
TTITLE0=X
TTITLE1=It's OK
TTITLE2=Song 4 Lovers (Full Length Version)
TTITLE3=Then There Was You
TTITLE4=Shotgun
TTITLE5=Yo DJ
TTITLE6=In My Bed
TTITLE7=Dirty Cash
TTITLE8=Move Ya Body
TTITLE9=Divine Intervention
TTITLE10=Being Nobody (Richard X Vs. Liberty X)
TTITLE11=Got 2 Have Your Love
TTITLE12=Holding On For You
TTITLE13=Just A Little
TTITLE14=A Night To Remember
TTITLE15=Everybody Dance
EXTD=
EXTT0=
EXTT1=
EXTT2=
EXTT3=
EXTT4=
EXTT5=
EXTT6=
EXTT7=
EXTT8=
EXTT9=
EXTT10=
EXTT11=
EXTT12=
EXTT13=
EXTT14=
EXTT15=
PLAYORDER=
